<?xml version="1.0" encoding="iso-8859-1"?>
<!-- Uploaded to: SVG Repo, www.svgrepo.com, Generator: SVG Repo Mixer Tools -->
<svg height="800px" width="800px" version="1.1" id="Layer_1" xmlns="http://www.w3.org/2000/svg" xmlns:xlink="http://www.w3.org/1999/xlink" 
	 viewBox="0 0 473.98 473.98" xml:space="preserve">
<path style="fill:#F9A72F;" d="M0.002,236.99C0.002,106.095,106.104,0,236.995,0c130.88,0,236.982,106.095,236.982,236.99
	c0,130.884-106.102,236.99-236.982,236.99C106.108,473.976,0.002,367.87,0.002,236.99z"/>
<path style="fill:#9F7534;" d="M300.056,370.647c0-23.532,8.666-30.417,8.666-49.264c0-41.568-31.809-50.828-71.042-50.828
	c-39.236,0-71.045,9.261-71.045,50.828c0,18.847,8.666,26.469,8.666,49.264c0,22.788-26.885,44.673-26.885,75.543
	c0,3.865,0.296,7.439,0.722,10.889c27.177,10.859,56.8,16.898,87.853,16.898c31.599,0,61.732-6.241,89.298-17.467
	c0.382-3.282,0.644-6.672,0.644-10.32C326.937,415.323,300.056,394.179,300.056,370.647z"/>
<circle style="fill:#8C652E;" cx="237.153" cy="337.318" r="31.113"/>
<g>
	<circle style="fill:#644421;" cx="237.153" cy="337.318" r="23.068"/>
	<path style="fill:#644421;" d="M237.048,360.387c-1.033,0-2.028-0.131-3.035-0.236
		C235.009,360.293,236.011,360.387,237.048,360.387z"/>
	<path style="fill:#644421;" d="M237.141,360.394c1.134,0,2.234-0.109,3.319-0.262c-1.104,0.116-2.193,0.262-3.334,0.262
		C237.126,360.394,237.138,360.394,237.141,360.394z"/>
</g>
<g>
	<path style="fill:#714D22;" d="M237.111,360.394h0.015c-0.03,0-0.052-0.008-0.079-0.008
		C237.07,360.387,237.089,360.394,237.111,360.394z"/>
	<path style="fill:#714D22;" d="M254.922,322.632l-0.037-2.836l-5.018-223.074h-25.085l-5.014,222.752l-0.034,2.746l-0.359,29.811
		c3.603,4.34,8.771,7.323,14.634,8.12c1.007,0.101,1.998,0.236,3.035,0.236c0.03,0,0.052,0.008,0.079,0.008
		c1.141,0,2.23-0.146,3.334-0.262c5.998-0.868,11.233-4.019,14.814-8.572L254.922,322.632z"/>
	<path style="fill:#714D22;" d="M237.063,48.078c-8.954,0-16.209,3.297-16.209,13.104v32.434c0,9.807,7.255,17.766,16.209,17.766
		c8.954,0,16.213-7.959,16.213-17.766V61.182C253.276,51.375,246.013,48.078,237.063,48.078z"/>
	<path style="fill:#714D22;" d="M237.063,46.698c-0.531,0-2.41-1.235-4.468-1.19c-1.92,0.037-6.309,6.365-6.309,6.365
		c0,9.807,4.819,17.766,10.776,17.766s10.78-7.959,10.78-17.766c0,0-4.617-6.402-6.511-6.395
		C239.368,45.493,237.654,46.698,237.063,46.698z"/>
</g>
<path style="fill:#8C652E;" d="M280.239,430.837c0,2.96-2.402,5.366-5.362,5.366h-73.126c-2.956,0-5.358-2.406-5.358-5.366l0,0
	c0-2.96,2.402-5.358,5.358-5.358h73.126C277.837,425.482,280.239,427.877,280.239,430.837L280.239,430.837z"/>
<path style="fill:#7A5628;" d="M264.352,430.837c0,1.833-1.493,3.326-3.33,3.326h-45.418c-1.833,0-3.33-1.489-3.33-3.326l0,0
	c0-1.833,1.493-3.326,3.33-3.326h45.422C262.859,427.51,264.352,429.003,264.352,430.837L264.352,430.837z"/>
<g style="opacity:0.5;">
	<polygon style="fill:#D2D2D2;" points="224.726,431.596 223.301,431.596 226.844,84.392 227.974,84.392 	"/>
	<polygon style="fill:#D2D2D2;" points="246.036,431.29 244.614,431.29 242.806,70.405 243.929,70.405 	"/>
	<polygon style="fill:#D2D2D2;" points="251.435,431.305 250.009,431.305 246.619,84.628 247.746,84.628 	"/>
	<polygon style="fill:#D2D2D2;" points="230.316,431.372 228.891,431.372 230.878,70.581 232.008,70.581 	"/>
	<polygon style="fill:#D2D2D2;" points="240.793,431.596 239.368,431.596 238.825,56.928 239.955,56.928 	"/>
	<polygon style="fill:#D2D2D2;" points="235.162,431.596 233.736,431.596 234.814,57.055 235.944,57.055 	"/>
</g>
<g>
	<path style="fill:#60441D;" d="M255.6,60.247c-1.003,0-1.807-0.367-1.807-0.834v-4.531c0-0.468,0.808-0.842,1.807-0.842l0,0
		c1.007,0,1.811,0.374,1.811,0.842v4.531C257.411,59.88,256.602,60.247,255.6,60.247L255.6,60.247z"/>
	<path style="fill:#60441D;" d="M255.6,74.731c-1.003,0-1.807-0.367-1.807-0.834v-4.528c0-0.468,0.808-0.842,1.807-0.842l0,0
		c1.007,0,1.811,0.374,1.811,0.842V73.9C257.411,74.368,256.602,74.731,255.6,74.731L255.6,74.731z"/>
	<path style="fill:#60441D;" d="M254.567,83.61H248c-0.999,0-1.807,0.812-1.807,1.811c0,0.999,0.812,1.811,1.807,1.811h6.567
		c1.003,0,1.807-0.812,1.807-1.811C256.374,84.422,255.57,83.61,254.567,83.61z"/>
	<path style="fill:#60441D;" d="M255.6,88.531c-1.003,0-1.807-0.374-1.807-0.834v-4.531c0-0.468,0.808-0.849,1.807-0.849l0,0
		c1.007,0,1.811,0.382,1.811,0.849v4.531C257.411,88.157,256.602,88.531,255.6,88.531L255.6,88.531z"/>
	<path style="fill:#60441D;" d="M218.272,60.247c1.003,0,1.807-0.367,1.807-0.834v-4.531c0-0.468-0.808-0.842-1.807-0.842l0,0
		c-1.003,0-1.811,0.374-1.811,0.842v4.531C216.461,59.88,217.269,60.247,218.272,60.247L218.272,60.247z"/>
	<path style="fill:#60441D;" d="M218.272,74.731c1.003,0,1.807-0.367,1.807-0.834v-4.528c0-0.468-0.808-0.842-1.807-0.842l0,0
		c-1.003,0-1.811,0.374-1.811,0.842V73.9C216.461,74.368,217.269,74.731,218.272,74.731L218.272,74.731z"/>
	<path style="fill:#60441D;" d="M256.378,57.141c0-1.003-0.808-1.804-1.807-1.804H239.48c-1.003,0-1.807,0.804-1.807,1.804
		c0,1.01,0.808,1.811,1.807,1.811h15.091C255.57,58.952,256.378,58.151,256.378,57.141z"/>
	<path style="fill:#60441D;" d="M254.567,69.822h-10.466c-1.003,0-1.811,0.804-1.811,1.811c0,1.003,0.812,1.804,1.811,1.804h10.466
		c1.003,0,1.807-0.804,1.807-1.804C256.378,70.626,255.57,69.822,254.567,69.822z"/>
	<path style="fill:#60441D;" d="M235.256,55.337h-15.951c-1.003,0-1.811,0.804-1.811,1.804c0,1.01,0.812,1.811,1.811,1.811h15.951
		c1.003,0,1.807-0.804,1.807-1.811C237.067,56.138,236.258,55.337,235.256,55.337z"/>
	<path style="fill:#60441D;" d="M230.668,69.822h-11.364c-1.003,0-1.811,0.804-1.811,1.811c0,1.003,0.812,1.804,1.811,1.804h11.36
		c1.01,0,1.811-0.804,1.811-1.804C232.479,70.626,231.675,69.822,230.668,69.822z"/>
	<path style="fill:#60441D;" d="M226.769,83.61h-7.465c-1.003,0-1.811,0.812-1.811,1.811c0,0.999,0.812,1.811,1.811,1.811h7.461
		c1.007,0,1.807-0.812,1.807-1.811C228.573,84.422,227.772,83.61,226.769,83.61z"/>
	<path style="fill:#60441D;" d="M218.272,88.531c1.003,0,1.807-0.374,1.807-0.834v-4.531c0-0.468-0.808-0.849-1.807-0.849l0,0
		c-1.003,0-1.811,0.382-1.811,0.849v4.531C216.461,88.157,217.269,88.531,218.272,88.531L218.272,88.531z"/>
</g>
<g>
	<circle style="fill:#543A1A;" cx="234.522" cy="57.227" r="2.365"/>
	<circle style="fill:#543A1A;" cx="239.959" cy="57.227" r="2.365"/>
	<circle style="fill:#543A1A;" cx="231.095" cy="71.539" r="2.365"/>
	<circle style="fill:#543A1A;" cx="243.401" cy="71.539" r="2.365"/>
	<circle style="fill:#543A1A;" cx="227.192" cy="85.481" r="2.365"/>
	<circle style="fill:#543A1A;" cx="247.293" cy="85.481" r="2.369"/>
</g>
</svg>